<?xml version="1.0" standalone="no"?>
<!DOCTYPE svg PUBLIC "-//W3C//DTD SVG 20010904//EN"
 "http://www.w3.org/TR/2001/REC-SVG-20010904/DTD/svg10.dtd">
<svg version="1.0" xmlns="http://www.w3.org/2000/svg"
 width="801.000000pt" height="972.000000pt" viewBox="0 0 801.000000 972.000000"
 preserveAspectRatio="xMidYMid meet">
<metadata>
Created by potrace 1.15, written by Peter Selinger 2001-2017
</metadata>
<g transform="translate(0.000000,972.000000) scale(0.100000,-0.100000)"
fill="#000000" stroke="none">
<path d="M6875 8553 c-83 -7 -304 -64 -445 -115 -30 -11 -80 -25 -110 -33 -30
-7 -80 -22 -110 -34 -30 -12 -77 -29 -105 -38 -27 -9 -57 -22 -65 -28 -8 -6
-35 -18 -60 -25 -25 -7 -93 -37 -151 -67 -58 -29 -117 -54 -130 -54 -15 -1 -6
-6 23 -13 53 -12 81 -32 57 -40 -13 -4 -133 -15 -221 -20 -46 -2 -39 10 15 25
23 7 48 17 55 23 42 32 -90 12 -157 -23 -10 -6 -21 -7 -25 -4 -11 11 -365 4
-386 -7 -11 -6 -82 -10 -167 -9 -81 1 -179 -4 -218 -10 -38 -6 -98 -11 -132
-11 -34 0 -84 -4 -110 -9 -26 -5 -109 -19 -183 -31 -74 -12 -171 -31 -215 -41
-82 -21 -262 -84 -280 -99 -6 -5 -35 -18 -65 -30 -75 -29 -308 -162 -347 -199
-18 -16 -42 -32 -53 -36 -11 -3 -20 -10 -20 -15 0 -5 -16 -16 -35 -25 -19 -10
-37 -25 -40 -35 -3 -11 -15 -22 -26 -25 -10 -4 -17 -10 -14 -15 6 -9 -18 -20
-44 -20 -10 0 -49 -23 -87 -51 -38 -28 -74 -53 -81 -56 -6 -2 -29 -31 -49 -64
-21 -32 -43 -59 -49 -59 -7 0 -32 -24 -56 -52 -24 -29 -67 -78 -97 -110 -34
-35 -49 -59 -42 -63 6 -4 17 -1 23 7 7 8 20 20 30 27 33 25 17 -4 -35 -65 -87
-101 -96 -111 -114 -141 l-18 -28 30 28 c51 46 46 30 -14 -50 -32 -43 -71
-107 -86 -142 -32 -76 -18 -69 51 25 25 35 53 66 60 69 22 8 14 -6 -68 -118
-72 -95 -123 -187 -97 -171 16 10 -3 -62 -35 -133 -5 -12 -7 -29 -4 -37 11
-27 -10 -63 -40 -70 -15 -4 -46 -16 -68 -26 -183 -85 -259 -125 -291 -154 -22
-20 -57 -39 -82 -46 -25 -6 -56 -20 -69 -30 -13 -10 -54 -29 -91 -41 -94 -31
-165 -63 -180 -82 -8 -9 -34 -26 -58 -37 -33 -16 -44 -28 -44 -44 0 -21 -37
-66 -54 -66 -4 0 -4 10 -1 23 7 20 4 19 -26 -9 -19 -17 -45 -38 -59 -47 -50
-34 -144 -134 -172 -184 -17 -29 -34 -53 -39 -53 -6 0 -16 -15 -24 -34 -8 -19
-19 -37 -25 -41 -5 -3 -10 -15 -10 -25 0 -10 -25 -59 -55 -107 -30 -48 -61
-99 -67 -113 -7 -14 -26 -43 -43 -65 -53 -69 -80 -118 -105 -185 -13 -36 -39
-96 -58 -135 -46 -92 -106 -363 -98 -442 7 -69 18 -118 32 -140 10 -15 14 -55
14 -129 0 -89 4 -115 21 -151 11 -24 27 -43 34 -43 7 0 25 -20 39 -45 38 -63
57 -71 107 -43 34 19 42 20 49 8 5 -8 23 -19 40 -25 l31 -10 6 -115 c7 -124 7
-123 -3 -344 -6 -141 -5 -152 17 -198 13 -28 28 -47 35 -44 7 3 15 -5 18 -17
3 -12 19 -30 35 -40 20 -12 34 -31 42 -58 13 -40 41 -70 97 -100 37 -21 88
-104 74 -122 -5 -6 -12 -25 -16 -41 -4 -15 -17 -49 -28 -74 -12 -25 -22 -60
-22 -78 -1 -19 -5 -34 -10 -34 -6 0 -40 18 -77 40 -66 39 -274 137 -354 167
-174 64 -352 123 -362 119 -7 -3 -13 -16 -13 -28 0 -13 -10 -36 -23 -52 -23
-28 -25 -28 -63 -16 -21 7 -54 15 -72 16 -63 6 -69 11 -68 56 1 41 0 42 -49
62 -27 12 -59 31 -70 44 -16 19 -26 22 -48 17 l-27 -7 0 -197 1 -196 107 -42
c129 -51 266 -99 468 -162 110 -35 176 -63 245 -104 52 -30 128 -73 169 -95
75 -40 75 -41 73 -79 -2 -21 -4 -85 -5 -143 -3 -100 -2 -108 22 -137 14 -18
30 -31 35 -31 24 1 35 -3 51 -19 17 -17 18 -17 11 0 -5 13 -1 17 19 17 18 0
30 -9 42 -31 9 -18 29 -43 45 -57 15 -14 27 -32 27 -40 0 -7 9 -26 19 -40 10
-15 18 -31 18 -37 0 -5 8 -12 19 -13 10 -2 29 -13 41 -24 12 -11 27 -17 33
-13 6 4 17 1 25 -5 8 -6 19 -9 25 -5 5 3 10 1 10 -5 0 -6 10 -4 25 6 17 11 25
12 25 4 0 -7 8 -9 19 -5 15 5 20 -2 30 -42 16 -60 29 -77 47 -62 10 8 11 16 3
30 -8 16 -6 19 10 19 11 0 24 6 28 13 11 18 107 49 127 41 10 -4 16 -1 16 8 0
7 9 19 20 25 10 7 22 29 26 49 3 19 13 38 20 41 8 3 12 9 9 13 -6 9 35 90 45
90 8 0 148 -46 295 -97 63 -22 164 -69 235 -110 360 -204 700 -373 801 -398
23 -6 28 -14 34 -52 4 -28 2 -56 -5 -74 -8 -17 -9 -40 -4 -56 4 -16 7 -31 6
-35 -1 -4 7 -28 18 -53 11 -26 20 -57 20 -70 0 -26 33 -43 53 -27 18 14 112
-2 103 -17 -3 -4 4 -7 14 -7 10 0 17 3 14 7 -8 13 34 21 54 10 11 -6 24 -6 33
0 26 16 39 10 39 -21 0 -16 4 -30 8 -30 5 0 9 -6 10 -12 0 -7 3 -40 6 -73 4
-33 8 -92 9 -132 3 -66 5 -73 37 -103 25 -23 39 -30 57 -25 16 4 25 1 29 -10
4 -8 14 -15 23 -15 9 0 27 -9 41 -20 30 -24 44 -25 60 -5 7 9 20 13 28 10 14
-5 55 32 85 78 9 15 18 57 21 108 3 46 9 109 12 139 7 55 37 130 53 130 4 0
39 -17 77 -38 81 -44 342 -172 352 -172 4 0 39 -16 77 -35 39 -19 75 -35 80
-35 6 0 56 -18 110 -41 55 -22 221 -81 369 -130 241 -80 282 -97 386 -159
l117 -70 415 0 416 0 -11 25 c-7 14 -18 25 -24 25 -7 0 -13 7 -13 15 0 17 -45
21 -55 5 -4 -6 -11 -8 -16 -4 -6 4 -6 11 2 20 9 11 6 14 -17 14 -20 0 -25 -3
-15 -9 10 -7 10 -10 1 -16 -19 -12 -72 -16 -66 -6 5 8 -29 24 -46 22 -4 0 -5
6 -2 14 4 8 11 15 18 16 6 0 2 4 -9 9 -11 5 -38 7 -60 4 -22 -3 -53 -1 -69 5
-21 9 -32 8 -42 0 -30 -25 -214 9 -214 40 0 10 -83 33 -129 35 -22 1 -45 7
-53 13 -7 6 -35 13 -63 16 -27 3 -79 13 -115 22 -69 18 -106 24 -156 28 -17 1
-42 9 -55 18 -13 8 -57 25 -96 38 -40 12 -75 26 -78 31 -9 15 -85 23 -100 10
-11 -9 -17 -6 -30 14 -9 14 -14 30 -10 35 10 17 189 2 300 -24 55 -13 143 -33
195 -45 52 -13 109 -28 125 -35 17 -8 82 -27 145 -44 157 -41 173 -44 165 -31
-3 5 -11 10 -17 10 -10 0 -76 30 -233 106 -16 8 -40 16 -53 19 -31 6 -42 14
-42 31 0 8 -8 14 -17 14 -21 0 -81 19 -115 36 -14 8 -34 14 -43 14 -9 0 -35 9
-58 19 -24 11 -54 22 -69 26 -31 8 -68 40 -68 60 0 14 -29 35 -49 35 -6 0 -13
-11 -17 -25 -7 -29 -19 -31 -71 -10 -21 8 -81 24 -133 35 -52 11 -105 22 -117
25 -13 3 -23 12 -23 21 0 21 -28 29 -55 14 -32 -17 -77 -8 -182 37 -17 7 -34
13 -38 13 -4 0 -13 6 -19 14 -6 8 -27 16 -46 19 -20 2 -45 9 -55 15 -11 5 -40
15 -65 22 -25 6 -58 15 -75 20 -16 5 -50 11 -75 15 -25 3 -61 13 -82 22 -32
13 -37 20 -43 60 -4 25 -2 50 3 55 5 5 57 -3 133 -21 143 -36 171 -38 112 -11
-23 11 -45 25 -48 30 -3 6 -17 10 -30 10 -13 0 -26 4 -29 9 -3 4 -30 16 -61
26 -60 19 -85 37 -85 63 0 9 -3 26 -6 37 -5 18 0 20 43 20 42 0 48 3 51 23 2
12 10 22 17 22 30 0 45 44 46 135 3 205 2 215 -25 294 -15 43 -16 61 -8 90 6
20 8 95 6 171 -3 74 -4 151 -4 170 1 32 16 54 31 44 4 -2 9 3 13 11 3 8 1 15
-4 15 -11 0 -2 83 10 88 3 1 5 15 2 31 -4 27 0 31 65 62 37 18 89 45 114 61
25 15 52 28 58 28 22 0 155 82 201 124 25 23 79 67 120 98 118 88 230 220 230
272 1 21 22 56 34 56 3 0 6 -8 6 -17 0 -27 46 46 59 92 6 22 11 62 11 88 0 41
5 55 35 90 29 33 35 49 35 86 0 50 12 77 28 67 17 -10 20 16 16 125 -3 77 -8
107 -19 115 -17 12 -21 74 -5 74 6 0 10 7 10 16 0 8 -5 12 -11 8 -14 -8 -29
14 -29 44 0 30 18 28 26 -4 4 -16 10 -22 16 -16 6 6 5 31 -2 68 -11 57 -18
113 -23 202 -1 26 -7 42 -14 42 -7 0 -13 11 -13 25 0 19 5 25 21 25 21 0 22 3
16 68 -4 37 -7 84 -7 105 0 26 -4 37 -15 37 -11 0 -15 12 -15 44 0 25 -4 48
-10 51 -5 3 -10 11 -10 18 0 8 3 8 12 -1 20 -20 28 -14 28 23 0 30 -3 35 -24
35 -27 0 -41 14 -31 31 5 6 11 4 19 -7 7 -9 17 -14 23 -11 12 8 27 -22 44 -86
8 -32 15 -45 22 -38 6 6 4 23 -6 50 -9 22 -14 48 -10 56 3 9 -2 45 -12 80 -9
34 -15 72 -13 84 3 19 6 18 32 -15 16 -21 49 -80 73 -133 36 -80 42 -89 37
-54 -4 23 -3 59 1 80 l7 38 19 -42 c10 -24 21 -59 25 -78 3 -20 9 -34 11 -31
6 6 -40 210 -81 360 -19 67 -37 139 -41 161 -3 22 -9 50 -12 63 -10 41 15 22
33 -25 10 -27 26 -55 35 -63 14 -13 35 -59 127 -270 10 -23 11 -21 11 20 1 25
-6 67 -14 94 -8 27 -13 51 -11 54 3 2 15 -15 28 -37 26 -47 41 -54 28 -13 -17
53 -78 208 -109 276 -36 79 -35 76 -18 76 8 0 28 -28 44 -62 32 -65 122 -311
143 -387 6 -23 14 -41 16 -38 3 3 -6 47 -20 98 -14 52 -26 107 -26 122 0 16
-7 43 -15 60 -22 48 -54 157 -46 157 14 0 38 -34 70 -98 17 -34 40 -68 51 -74
11 -7 20 -18 20 -25 0 -7 9 -17 20 -23 36 -19 24 15 -64 185 -107 205 -247
429 -278 443 -7 3 -58 98 -58 108 0 14 95 -64 134 -109 44 -51 131 -186 168
-259 18 -38 45 -54 34 -20 -5 15 -4 15 7 -1 76 -115 147 -185 94 -94 -13 23
-56 96 -94 162 -84 146 -156 255 -183 280 -24 22 -26 35 -3 35 25 0 182 -165
317 -334 66 -82 134 -157 153 -168 18 -11 33 -24 33 -29 0 -5 4 -9 10 -9 11 0
-36 68 -130 189 -91 117 -93 120 -125 175 -21 38 -24 48 -11 43 14 -6 15 -3 6
13 -19 35 4 21 45 -27 22 -25 51 -59 65 -74 14 -15 47 -57 75 -93 27 -36 53
-66 58 -66 4 0 -15 28 -41 63 -27 34 -54 77 -60 95 -13 39 -81 129 -180 239
-40 45 -75 89 -76 97 -3 22 -26 46 -65 66 -20 11 -52 33 -71 49 -27 23 -31 31
-17 31 24 0 57 -18 79 -44 15 -18 17 -19 18 -3 0 25 17 21 98 -23 82 -45 177
-117 304 -232 63 -57 94 -79 109 -76 18 2 -1 23 -102 110 -68 59 -160 141
-204 184 -44 42 -115 103 -158 137 -42 33 -75 62 -73 64 7 8 176 -69 241 -110
127 -79 226 -144 290 -192 39 -29 84 -61 100 -71 29 -18 29 -18 15 0 -21 26
-160 133 -268 205 -51 35 -103 72 -115 84 -12 12 -40 36 -62 54 -34 27 -37 32
-19 33 24 0 76 -33 151 -96 58 -50 92 -59 48 -14 -35 37 -21 39 29 5 43 -29
90 -54 172 -90 73 -32 59 -17 -40 44 -41 25 -107 71 -148 102 -40 31 -87 63
-104 72 -17 9 -37 23 -45 33 -13 15 -12 16 11 10 14 -4 95 -40 180 -79 85 -40
162 -71 169 -70 8 1 43 -11 78 -27 35 -16 63 -26 63 -22 0 11 -162 95 -260
135 -47 19 -134 58 -195 87 -60 28 -148 62 -194 76 -129 37 -163 83 -52 69 97
-12 278 -90 385 -167 21 -15 44 -28 51 -28 6 0 32 -14 58 -30 48 -30 88 -42
53 -15 -19 15 -19 15 5 15 l24 1 -28 15 c-15 8 -33 12 -39 8 -7 -4 -8 -3 -4 4
4 7 -38 33 -111 69 -64 32 -119 64 -121 71 -2 8 2 10 13 6 13 -5 16 -2 14 11
-3 12 -25 25 -69 40 -45 15 -64 27 -62 37 1 11 -14 18 -55 28 -79 17 -149 53
-138 70 7 11 129 -15 195 -40 30 -12 71 -24 90 -26 31 -4 69 -16 155 -49 18
-7 17 -5 -4 18 -28 31 -13 36 33 12 33 -18 55 -20 40 -5 -6 6 -64 32 -130 59
-65 26 -150 64 -189 83 -38 19 -95 43 -125 53 -73 25 -87 39 -30 31 25 -4 65
-9 90 -12 61 -6 147 -31 388 -110 28 -9 -2 17 -36 32 -120 51 -410 124 -493
124 -42 0 -36 17 8 22 65 8 234 -22 350 -61 73 -25 109 -33 106 -24 -5 14 -87
41 -283 94 -111 30 -121 35 -90 40 20 4 26 7 13 8 -12 0 -28 7 -36 15 -9 9
-23 12 -38 9 -24 -7 -24 -6 -5 13 28 27 166 26 256 -3 69 -23 164 -38 140 -23
-8 5 -46 17 -85 26 -83 20 -112 39 -45 31 25 -4 83 -9 130 -11 84 -6 84 -5 42
9 -23 7 -82 22 -130 31 -112 23 -125 35 -31 28 52 -4 69 -2 58 5 -8 5 -82 11
-163 12 -81 1 -149 5 -151 9 -2 4 13 13 34 20 52 17 192 8 386 -25 27 -4 35
-3 25 3 -8 6 -68 20 -134 32 -77 15 -113 26 -105 31 8 5 34 6 59 3 45 -6 49 9
5 19 -11 2 3 2 30 -1 89 -9 90 -8 90 13 0 19 -9 20 -148 26 -99 4 -152 11
-160 19 -10 10 18 11 136 6 96 -4 147 -3 147 4 0 5 -9 10 -20 10 -11 0 -19 5
-18 12 2 6 -8 15 -22 19 -21 6 -18 7 18 8 29 1 42 5 42 15 0 18 -16 23 -109
31 -48 5 -69 10 -60 16 8 5 51 6 97 3 85 -7 104 -1 52 17 -23 9 -27 13 -17 23
6 7 21 16 32 20 19 7 19 8 -5 21 l-25 14 25 2 c14 1 29 1 34 0 5 -1 4 5 -4 13
-7 9 -21 16 -31 16 -11 0 -19 5 -19 10 0 6 5 10 11 10 18 0 -1 20 -34 35 -29
13 -29 14 -7 12 21 -2 25 2 22 23 -4 28 -48 69 -74 70 -9 0 -20 5 -24 11 -5 8
6 9 37 4 l43 -7 -27 36 c-16 20 -26 40 -23 45 3 5 -1 14 -9 21 -19 16 -19 40
-1 40 8 0 14 8 14 18 0 9 23 67 53 127 46 96 64 121 138 195 113 112 331 260
604 409 42 23 77 46 77 50 0 4 18 16 40 26 22 10 40 22 40 27 0 5 4 7 9 4 5
-4 11 -3 13 2 1 4 55 34 118 66 108 55 129 70 130 89 0 23 -186 -17 -300 -65
-14 -6 -38 -14 -55 -19 -16 -4 -61 -20 -100 -34 -38 -15 -83 -31 -100 -36
l-30 -9 30 28 c28 26 328 185 384 203 130 42 166 58 166 76 0 15 -8 18 -50 19
-27 1 -68 -1 -90 -3z m-2045 -483 c0 -5 -10 -10 -22 -10 -19 0 -20 2 -8 10 19
13 30 13 30 0z m65 -11 c-8 -12 -35 -12 -35 0 0 11 22 20 33 14 4 -2 5 -9 2
-14z m75 11 c-19 -13 -30 -13 -30 0 0 6 10 10 23 10 18 0 19 -2 7 -10z m-225
-10 c4 -6 -6 -10 -22 -9 -25 0 -26 1 -8 9 11 5 21 9 22 9 1 1 5 -3 8 -9z m621
-2 c5 -8 2 -9 -9 -5 -10 4 -20 0 -26 -11 -5 -9 -13 -14 -16 -10 -9 8 16 37 32
38 6 0 15 -5 19 -12z m-66 -16 c0 -13 -12 -22 -22 -16 -10 6 -1 24 13 24 5 0
9 -4 9 -8z m-70 -22 c0 -4 -10 -6 -22 -5 -30 3 -30 3 -24 14 7 10 46 3 46 -9z
m430 -40 c5 0 7 -6 4 -14 -7 -19 -97 -54 -156 -62 -26 -4 -45 -11 -42 -15 3
-5 1 -9 -5 -9 -5 0 -13 5 -17 12 -9 15 15 31 119 80 65 30 83 35 85 23 2 -8 7
-15 12 -15z m-600 10 c0 -5 -7 -10 -15 -10 -8 0 -15 5 -15 10 0 6 7 10 15 10
8 0 15 -4 15 -10z m0 -64 c0 -5 -7 -3 -15 4 -8 7 -12 17 -9 22 7 10 24 -9 24
-26z m-855 14 c3 -5 1 -10 -4 -10 -6 0 -11 5 -11 10 0 6 2 10 4 10 3 0 8 -4
11 -10z m543 -10 c10 -16 10 -20 -2 -20 -7 0 -26 -7 -42 -14 -28 -15 -49 -12
-38 5 3 6 13 8 21 5 11 -5 14 -1 10 13 -8 33 32 42 51 11z m-404 -23 c-21 -12
-30 -1 -14 18 10 13 15 13 21 3 5 -8 2 -16 -7 -21z m136 17 c0 -2 -15 -4 -32
-3 -27 0 -29 2 -13 8 18 8 45 4 45 -5z m424 7 c4 -5 0 -11 -6 -14 -19 -6 -49
4 -42 14 7 12 41 12 48 0z m74 -33 c-2 -18 -9 -22 -28 -20 -13 1 -29 7 -35 13
-7 8 -1 10 21 7 24 -3 31 -1 27 9 -3 7 0 13 7 13 6 0 10 -10 8 -22z m772 -7
c0 -16 6 -31 13 -34 6 -3 3 -5 -8 -6 -51 -2 -135 -21 -185 -40 -30 -12 -73
-22 -94 -22 -22 0 -48 -5 -58 -10 -10 -5 -18 -7 -18 -3 0 13 35 33 58 34 12 0
42 9 67 20 25 11 65 29 90 40 25 11 51 20 58 20 7 0 22 7 33 15 30 22 44 18
44 -14z m-1485 -11 c4 -6 -7 -10 -24 -10 -17 0 -31 5 -31 10 0 6 11 10 24 10
14 0 28 -4 31 -10z m540 -10 c3 -5 -3 -10 -15 -10 -12 0 -18 5 -15 10 3 6 10
10 15 10 5 0 12 -4 15 -10z m-55 -10 c12 -8 11 -10 -7 -10 -13 0 -23 5 -23 10
0 13 11 13 30 0z m127 -6 c-3 -3 -12 -4 -19 -1 -8 3 -5 6 6 6 11 1 17 -2 13
-5z m-470 -10 c-3 -3 -12 -4 -19 -1 -8 3 -5 6 6 6 11 1 17 -2 13 -5z m428 -4
c3 -5 -3 -10 -14 -10 -12 0 -21 5 -21 10 0 6 6 10 14 10 8 0 18 -4 21 -10z
m-209 -29 c-7 -12 -74 -24 -86 -16 -21 13 2 25 46 25 25 0 43 -4 40 -9z m1144
-96 c-6 -8 -21 -17 -32 -21 -12 -3 -35 -21 -52 -39 -17 -18 -40 -37 -51 -43
-11 -6 -51 -36 -90 -66 -57 -46 -76 -56 -107 -56 -27 0 -38 4 -38 15 0 9 6 12
15 9 16 -6 95 42 95 57 0 5 7 9 15 9 19 0 72 36 100 68 11 12 29 22 38 22 10
0 23 5 30 10 48 41 62 50 75 50 12 0 12 -3 2 -15z m-1813 -41 c-3 -3 -12 -4
-19 -1 -8 3 -5 6 6 6 11 1 17 -2 13 -5z m1523 -56 c0 -12 -13 -9 -32 6 -26 19
-22 26 7 13 14 -7 25 -15 25 -19z m-1733 16 c-3 -3 -12 -4 -19 -1 -8 3 -5 6 6
6 11 1 17 -2 13 -5z m960 -20 c8 -20 -8 -36 -26 -25 -15 10 -8 41 9 41 6 0 13
-7 17 -16z m-1387 -83 c0 -5 -9 -11 -21 -14 -16 -4 -18 -3 -8 9 13 16 29 19
29 5z m-70 -48 c0 -5 -14 -16 -30 -25 -26 -15 -30 -15 -30 -2 0 8 10 19 23 24
28 11 37 12 37 3z m670 -53 c11 -7 7 -10 -17 -10 -18 0 -33 5 -33 10 0 13 30
13 50 0z m-824 -49 c-3 -5 -15 -11 -26 -14 -17 -4 -19 -3 -9 9 12 15 44 20 35
5z m844 -41 c0 -5 -7 -10 -16 -10 -8 0 -12 5 -9 10 3 6 10 10 16 10 5 0 9 -4
9 -10z m170 0 c0 -5 -7 -10 -15 -10 -8 0 -15 5 -15 10 0 6 7 10 15 10 8 0 15
-4 15 -10z m-814 -15 c-22 -17 -46 -20 -46 -6 0 10 22 18 50 20 11 0 10 -4 -4
-14z m2480 -12 c-10 -10 -19 5 -10 18 6 11 8 11 12 0 2 -7 1 -15 -2 -18z
m-1106 13 c0 -11 -19 -15 -25 -6 -3 5 1 10 9 10 9 0 16 -2 16 -4z m-76 -38
c-7 -10 -34 -10 -34 0 0 4 5 13 12 20 9 9 14 9 19 0 4 -7 5 -16 3 -20z m59 7
c1 -5 -6 -11 -15 -13 -11 -2 -18 3 -18 13 0 17 30 18 33 0z m-629 -14 c6 -9
-16 -21 -40 -21 -20 0 -17 18 4 23 28 8 31 7 36 -2z m193 3 c-3 -3 -12 -4 -19
-1 -8 3 -5 6 6 6 11 1 17 -2 13 -5z m308 -14 c3 -5 14 -10 24 -10 10 0 24 -7
31 -15 11 -13 6 -15 -33 -15 -56 0 -97 -15 -97 -35 0 -11 -11 -15 -44 -15 -23
0 -71 -3 -106 -7 -42 -4 -61 -3 -57 4 10 16 125 55 145 49 9 -3 40 7 67 23 58
33 62 34 70 21z m-1325 -8 c0 -9 -44 -32 -58 -32 -10 1 38 40 49 40 5 0 9 -4
9 -8z m1420 -2 c0 -5 -5 -10 -11 -10 -5 0 -7 5 -4 10 3 6 8 10 11 10 2 0 4 -4
4 -10z m70 -8 c0 -13 -12 -22 -22 -16 -10 6 -1 24 13 24 5 0 9 -4 9 -8z m-420
-22 c0 -13 -20 -13 -40 0 -12 8 -9 10 13 10 15 0 27 -4 27 -10z m-375 -10 c-3
-5 -10 -10 -16 -10 -5 0 -9 5 -9 10 0 6 7 10 16 10 8 0 12 -4 9 -10z m695 -20
c0 -5 -5 -10 -11 -10 -5 0 -7 5 -4 10 3 6 8 10 11 10 2 0 4 -4 4 -10z m-1585
-10 c-3 -5 -11 -10 -16 -10 -6 0 -7 5 -4 10 3 6 11 10 16 10 6 0 7 -4 4 -10z
m930 -10 c-3 -5 -15 -10 -26 -10 -11 0 -17 5 -14 10 3 6 15 10 26 10 11 0 17
-4 14 -10z m655 -20 c0 -5 -2 -10 -4 -10 -3 0 -8 5 -11 10 -3 6 -1 10 4 10 6
0 11 -4 11 -10z m-530 -9 c0 -10 -25 -21 -48 -21 -15 1 -14 3 2 15 22 17 46
20 46 6z m375 -1 c4 -6 -7 -10 -24 -10 -17 0 -31 5 -31 10 0 6 11 10 24 10 14
0 28 -4 31 -10z m-270 -21 c-8 -12 -55 -12 -55 0 0 10 39 20 53 13 4 -2 5 -8
2 -13z m158 -4 c1 -5 -13 -11 -30 -13 -31 -3 -42 6 -26 22 10 10 53 3 56 -9z
m-347 -10 c-19 -15 -46 -20 -46 -10 0 6 40 24 55 24 6 0 1 -6 -9 -14z m499 -5
c4 -6 -8 -10 -30 -10 -22 0 -34 4 -30 10 3 6 17 10 30 10 13 0 27 -4 30 -10z
m-395 -30 c0 -5 -10 -10 -22 -10 -19 0 -20 2 -8 10 19 13 30 13 30 0z m-1030
-9 c0 -10 -24 -21 -43 -21 -7 0 -3 7 7 15 22 17 36 19 36 6z m1320 -2 c0 -15
-56 -36 -120 -44 -50 -7 -53 -6 -41 9 7 9 28 16 45 16 17 0 42 7 56 14 31 17
60 20 60 5z m-1172 -11 c-3 -7 -13 -15 -24 -17 -16 -3 -17 -1 -5 13 16 19 34
21 29 4z m628 -3 c-22 -17 -56 -20 -56 -6 0 12 19 19 50 20 24 0 24 0 6 -14z
m669 5 c-3 -5 -15 -10 -26 -10 -10 0 -19 5 -19 10 0 6 12 10 26 10 14 0 23 -4
19 -10z m-825 -9 c0 -10 -25 -21 -48 -21 -15 1 -14 3 2 15 22 17 46 20 46 6z
m2080 -1 c13 -8 13 -10 -2 -10 -9 0 -20 5 -23 10 -8 13 5 13 25 0z m96 -8
c-10 -2 -22 0 -28 6 -6 6 0 7 19 4 21 -5 23 -7 9 -10z m-2716 -21 c0 -10 -30
-24 -37 -17 -3 3 -2 9 2 15 8 13 35 15 35 2z m453 -8 c-7 -2 -19 -2 -25 0 -7
3 -2 5 12 5 14 0 19 -2 13 -5z m2202 -13 c15 -7 10 -9 -22 -9 -24 -1 -43 4
-43 9 0 12 37 12 65 0z m-2945 -15 c-7 -8 -17 -15 -22 -15 -6 0 -5 7 2 15 7 8
17 15 22 15 6 0 5 -7 -2 -15z m909 -11 c-13 -16 -69 -19 -69 -4 0 11 60 30 73
23 4 -3 3 -11 -4 -19z m451 16 c-19 -13 -30 -13 -30 0 0 6 10 10 23 10 18 0
19 -2 7 -10z m-310 -10 c-20 -13 -33 -13 -25 0 3 6 14 10 23 10 15 0 15 -2 2
-10z m185 1 c6 -11 -26 -31 -49 -31 -24 0 -19 19 7 30 29 12 35 12 42 1z m430
0 c3 -5 -4 -13 -16 -16 -23 -8 -34 -1 -24 14 8 13 32 14 40 2z m-1405 -21 c0
-5 -5 -10 -11 -10 -5 0 -7 5 -4 10 3 6 8 10 11 10 2 0 4 -4 4 -10z m1253 -10
c-4 -5 -21 -12 -37 -16 -34 -8 -28 12 8 26 23 9 42 2 29 -10z m-1703 -25 c-7
-9 -15 -13 -18 -10 -3 2 1 11 8 20 7 9 15 13 18 10 3 -2 -1 -11 -8 -20z m2040
5 c0 -5 -4 -10 -10 -10 -5 0 -10 5 -10 10 0 6 5 10 10 10 6 0 10 -4 10 -10z
m-1675 -27 c-28 -20 -41 -16 -20 7 10 11 22 17 28 13 6 -4 3 -12 -8 -20z
m1245 19 c0 -13 -47 -32 -78 -32 l-27 1 24 19 c23 20 81 28 81 12z m-438 -19
c45 -20 45 -39 -1 -35 -27 2 -71 31 -71 47 0 10 34 4 72 -12z m158 8 c0 -5
-13 -14 -29 -21 -16 -6 -32 -18 -35 -26 -3 -8 -12 -14 -20 -14 -22 0 -10 22
27 48 33 23 57 29 57 13z m325 -31 c6 -9 -33 -30 -56 -30 -18 0 -9 21 14 30
29 12 35 12 42 0z m-1410 -10 c-3 -5 -11 -10 -16 -10 -6 0 -7 5 -4 10 3 6 11
10 16 10 6 0 7 -4 4 -10z m1135 0 c-20 -13 -53 -13 -45 0 3 6 18 10 33 10 21
0 24 -2 12 -10z m590 -11 c0 -5 -7 -9 -15 -9 -15 0 -20 12 -9 23 8 8 24 -1 24
-14z m-1520 1 c0 -5 -5 -10 -11 -10 -5 0 -7 5 -4 10 3 6 8 10 11 10 2 0 4 -4
4 -10z m2727 -6 c-3 -3 -12 -4 -19 -1 -8 3 -5 6 6 6 11 1 17 -2 13 -5z m-1957
-18 c0 -8 -13 -19 -29 -24 -24 -9 -32 -7 -46 8 -16 18 -15 19 22 23 21 2 41 4
46 5 4 1 7 -4 7 -12z m565 4 c-3 -5 -15 -10 -26 -10 -11 0 -17 5 -14 10 3 6
15 10 26 10 11 0 17 -4 14 -10z m-1480 -10 c-3 -5 -16 -10 -28 -10 -18 0 -19
2 -7 10 20 13 43 13 35 0z m85 -39 c0 -11 -31 -24 -39 -16 -3 3 1 10 9 15 19
12 30 12 30 1z m675 0 c7 -12 -61 -32 -82 -24 -14 5 -13 8 3 20 21 15 70 17
79 4z m156 -17 c9 -11 5 -16 -15 -25 -32 -15 -34 -31 -3 -29 35 3 44 -1 22
-10 -11 -5 -38 -9 -60 -9 -27 -1 -36 -4 -26 -10 25 -16 6 -38 -28 -33 -29 4
-45 22 -20 22 6 0 9 9 6 20 -3 13 1 21 14 25 25 8 24 20 -3 33 -21 10 -22 11
-3 11 11 1 31 7 45 14 28 15 54 12 71 -9z m351 14 c-19 -19 -212 -47 -212 -30
0 16 56 34 87 28 15 -3 44 -2 63 3 54 14 76 13 62 -1z m-292 -7 c0 -5 -7 -12
-16 -15 -24 -9 -28 -7 -14 9 14 17 30 20 30 6z m580 -10 c0 -12 -20 -25 -27
-18 -7 7 6 27 18 27 5 0 9 -4 9 -9z m140 -20 c0 -12 -20 -25 -27 -18 -7 7 6
27 18 27 5 0 9 -4 9 -9z m-1600 -11 c0 -5 -9 -10 -21 -10 -11 0 -17 5 -14 10
3 6 13 10 21 10 8 0 14 -4 14 -10z m361 -5 c0 -6 -10 -12 -23 -13 -19 -4 -20
-2 -9 12 15 17 33 18 32 1z m564 -25 c0 -8 -9 -15 -20 -16 -11 -1 -30 -4 -42
-8 -33 -10 -29 10 5 28 32 18 57 16 57 -4z m345 10 c0 -6 -12 -15 -27 -20 -16
-6 -59 -26 -96 -46 -64 -34 -87 -39 -73 -15 4 5 32 22 64 37 31 15 68 33 82
40 30 16 50 18 50 4z m-371 -49 c21 -13 -22 -33 -54 -25 l-26 6 23 13 c28 16
39 17 57 6z m691 -5 c0 -16 -18 -31 -27 -22 -8 8 5 36 17 36 5 0 10 -6 10 -14z
m-370 -18 c0 -16 -31 -48 -47 -48 -17 0 -16 5 3 35 17 26 44 34 44 13z m-930
-7 c0 -12 -28 -22 -34 -12 -3 5 -3 11 1 15 9 9 33 7 33 -3z m168 -13 c-3 -7
-18 -14 -34 -16 -28 -2 -28 -2 -10 13 24 18 49 20 44 3z m237 3 c10 -17 -27
-29 -107 -36 -53 -5 -78 -4 -78 3 0 6 21 14 48 18 26 4 56 10 67 15 28 11 63
11 70 0z m115 -1 c0 -5 -4 -10 -10 -10 -5 0 -10 5 -10 10 0 6 5 10 10 10 6 0
10 -4 10 -10z m608 -7 c-4 -23 -48 -31 -48 -10 0 9 6 18 13 20 25 11 38 7 35
-10z m942 -3 c0 -5 -2 -10 -4 -10 -3 0 -8 5 -11 10 -3 6 -1 10 4 10 6 0 11 -4
11 -10z m-1925 -40 c-3 -5 -22 -12 -43 -15 -20 -4 -46 -9 -57 -12 -30 -8 -9
10 28 23 40 15 80 17 72 4z m330 0 c-3 -5 -20 -10 -36 -10 -18 0 -28 4 -24 10
3 6 20 10 36 10 18 0 28 -4 24 -10z m-505 -10 c0 -5 -4 -10 -10 -10 -5 0 -10
5 -10 10 0 6 5 10 10 10 6 0 10 -4 10 -10z m388 -6 c6 -12 17 -15 32 -11 27 7
80 -2 80 -13 0 -14 -71 -32 -101 -26 -16 3 -29 1 -29 -4 0 -6 -7 -10 -15 -10
-21 0 -19 27 3 39 16 10 16 10 0 11 -18 0 -23 11 -11 23 12 12 32 7 41 -9z
m-1168 -1 c0 -5 -9 -19 -20 -33 -21 -27 -27 -12 -8 20 13 20 28 27 28 13z
m1587 1 c-3 -3 -12 -4 -19 -1 -8 3 -5 6 6 6 11 1 17 -2 13 -5z m283 -3 c0 -14
-18 -23 -30 -16 -6 4 -8 11 -5 16 8 12 35 12 35 0z m-1060 -22 c0 -5 -7 -9
-15 -9 -21 0 -19 -18 3 -23 14 -3 12 -6 -8 -14 -23 -9 -25 -8 -28 15 -2 16 3
31 14 39 17 13 34 9 34 -8z m212 5 c-26 -11 -32 -19 -27 -34 5 -15 0 -21 -21
-26 -15 -4 -35 -2 -45 5 -10 6 -28 11 -39 11 -23 0 -26 10 -8 28 15 15 92 16
83 2 -3 -5 -1 -10 4 -10 6 0 11 6 11 14 0 17 16 24 50 24 23 0 22 -1 -8 -14z
m308 6 c0 -5 -4 -10 -10 -10 -5 0 -10 5 -10 10 0 6 5 10 10 10 6 0 10 -4 10
-10z m440 -30 c0 -12 -35 -31 -44 -23 -8 9 14 33 30 33 8 0 14 -4 14 -10z
m-276 -22 c11 -11 10 -18 -6 -40 -20 -29 -42 -36 -53 -18 -4 6 2 18 12 28 10
9 14 14 9 10 -15 -12 -26 -9 -26 6 0 25 42 34 64 14z m-221 -23 c1 -5 -6 -11
-15 -13 -11 -2 -18 3 -18 13 0 17 30 18 33 0z m-293 -20 c0 -16 -35 -21 -44
-6 -8 12 4 21 26 21 10 0 18 -7 18 -15z m175 -32 c6 -20 3 -23 -24 -23 -35 0
-81 19 -81 33 0 5 12 7 27 4 16 -3 32 1 41 10 16 16 26 9 37 -24z m55 27 c0
-5 -6 -10 -14 -10 -8 0 -18 5 -21 10 -3 6 3 10 14 10 12 0 21 -4 21 -10z
m-366 -6 c25 -9 19 -24 -9 -24 -16 0 -25 6 -25 15 0 16 9 19 34 9z m906 -44
c-10 -19 -40 -28 -40 -12 0 13 23 32 37 32 11 0 11 -5 3 -20z m-787 3 c-7 -2
-19 -2 -25 0 -7 3 -2 5 12 5 14 0 19 -2 13 -5z m372 -30 c6 -14 19 -23 32 -23
12 0 25 -4 28 -10 6 -9 50 -31 88 -44 9 -3 17 -13 17 -21 0 -18 -22 -14 -72
11 -15 8 -37 14 -50 14 -13 0 -31 7 -42 15 -12 9 -30 12 -49 8 -21 -4 -33 -1
-41 10 -7 8 -25 17 -41 19 -16 1 -31 9 -33 17 -4 11 2 13 26 8 20 -4 34 -1 42
8 19 23 83 14 95 -12z m100 18 c3 -5 1 -13 -5 -16 -15 -9 -43 3 -35 15 8 13
32 13 40 1z m115 -1 c0 -5 -4 -10 -10 -10 -5 0 -10 5 -10 10 0 6 5 10 10 10 6
0 10 -4 10 -10z m65 -26 c-21 -16 -46 -15 -47 1 0 6 10 15 23 22 32 17 52 -2
24 -23z m1319 30 c9 -3 16 -10 16 -15 0 -12 -38 -10 -85 6 l-40 13 47 1 c25 1
53 -2 62 -5z m-2019 -14 c3 -6 -5 -10 -19 -10 -14 0 -28 5 -31 10 -3 6 5 10
19 10 14 0 28 -4 31 -10z m-965 -10 c0 -5 -4 -10 -10 -10 -5 0 -10 -8 -10 -18
0 -22 -9 -34 -22 -26 -4 3 -1 19 9 35 17 29 33 38 33 19z m980 -36 c0 -2 -13
-4 -30 -4 -16 0 -30 4 -30 8 0 5 14 7 30 4 17 -2 30 -6 30 -8z m194 -23 c3 -5
-8 -11 -25 -13 -29 -5 -45 3 -32 16 9 9 51 7 57 -3z m124 -33 c-9 -5 -4 -8 13
-8 15 0 33 -7 40 -17 25 -30 -60 -5 -92 27 -35 34 -28 44 17 22 24 -11 30 -18
22 -24z m329 -3 c-4 -51 10 -70 43 -60 17 5 20 2 20 -19 0 -38 -32 -34 -94 12
-43 31 -47 37 -29 40 15 2 19 8 16 23 -6 22 13 49 33 49 11 0 14 -11 11 -45z
m-665 25 c23 0 39 -2 37 -4 -9 -9 -108 -15 -113 -7 -8 12 6 22 22 16 7 -3 32
-5 54 -5z m2361 -42 c22 -11 37 -22 34 -24 -5 -6 -158 54 -172 67 -13 13 93
-20 138 -43z m-1518 22 c16 -17 16 -20 2 -26 -9 -3 -22 -2 -29 2 -7 5 -21 7
-30 6 -18 -3 -25 18 -11 31 13 14 50 7 68 -13z m-1220 0 c-3 -5 -22 -10 -41
-10 -19 0 -34 5 -34 10 0 6 18 10 41 10 24 0 38 -4 34 -10z m-642 -17 c-7 -3
-13 -12 -13 -21 0 -13 -2 -14 -12 -3 -11 10 -9 15 6 27 11 7 22 11 25 8 3 -4
0 -9 -6 -11z m371 8 c8 -12 -50 -35 -65 -25 -9 5 -7 11 6 21 21 15 51 17 59 4z
m1106 -11 c12 -8 9 -10 -12 -10 -16 0 -28 5 -28 10 0 13 20 13 40 0z m-430
-17 c0 -10 -10 -13 -37 -11 -52 4 -55 27 -4 26 29 0 41 -5 41 -15z m-490 -30
c0 -8 -4 -11 -10 -8 -16 10 -90 -15 -90 -30 0 -11 -12 -15 -40 -15 -46 0 -55
17 -10 18 38 1 51 9 44 27 -4 10 4 15 28 17 71 7 78 6 78 -9z m168 -22 c-7
-11 -17 -22 -23 -24 -19 -7 -75 14 -75 28 0 8 6 12 13 9 7 -2 31 -1 52 4 48
11 50 10 33 -17z m707 19 c-3 -5 -10 -10 -16 -10 -5 0 -9 5 -9 10 0 6 7 10 16
10 8 0 12 -4 9 -10z m503 -12 c-7 -19 -38 -22 -38 -4 0 10 9 16 21 16 12 0 19
-5 17 -12z m-1823 -8 c3 -5 -3 -10 -15 -10 -12 0 -18 5 -15 10 3 6 10 10 15
10 5 0 12 -4 15 -10z m1548 -6 c18 -9 39 -25 45 -35 10 -16 9 -19 -7 -19 -10
0 -25 7 -32 16 -7 9 -23 20 -36 25 -23 8 -32 29 -13 29 5 0 24 -7 43 -16z
m-398 -10 c0 -16 -41 -15 -55 1 -11 13 -8 15 21 11 19 -2 34 -7 34 -12z m-687
-42 c-2 -21 2 -27 22 -33 23 -6 23 -7 -7 -8 -22 -1 -33 4 -33 13 0 8 -13 17
-30 21 -30 7 -42 25 -16 25 8 0 17 7 20 15 10 27 48 -1 44 -33z m522 7 c0 -11
-3 -11 -24 -3 -23 9 -20 23 4 17 11 -3 20 -9 20 -14z m54 2 c3 -5 -1 -11 -9
-15 -9 -3 -15 0 -15 9 0 16 16 20 24 6z m-1224 -11 c0 -5 -10 -10 -22 -10 -19
0 -20 2 -8 10 19 13 30 13 30 0z m420 0 c0 -5 -9 -10 -20 -10 -11 0 -20 5 -20
10 0 6 9 10 20 10 11 0 20 -4 20 -10z m1467 -20 c3 -11 13 -20 23 -20 9 0 25
-9 35 -20 10 -11 13 -20 7 -20 -20 0 -125 44 -114 48 7 2 12 10 12 18 0 22 31
17 37 -6z m-1387 -19 c0 -10 -40 -19 -58 -13 -25 8 -11 22 23 22 19 0 35 -4
35 -9z m670 -1 c0 -5 -4 -10 -9 -10 -6 0 -13 5 -16 10 -3 6 1 10 9 10 9 0 16
-4 16 -10z m50 6 c0 -3 -4 -8 -10 -11 -5 -3 -10 -1 -10 4 0 6 5 11 10 11 6 0
10 -2 10 -4z m245 -6 c-3 -5 -17 -10 -31 -10 -13 0 -24 5 -24 10 0 6 14 10 31
10 17 0 28 -4 24 -10z m-1695 -10 c-20 -13 -43 -13 -35 0 3 6 16 10 28 10 18
0 19 -2 7 -10z m220 -10 c0 -5 -10 -10 -22 -10 -19 0 -20 2 -8 10 19 13 30 13
30 0z m1630 -15 c18 -22 -6 -27 -45 -11 -20 9 -34 19 -31 24 7 12 63 2 76 -13z
m-670 0 c7 -8 20 -15 29 -15 9 0 21 -4 27 -9 5 -5 27 -11 49 -13 33 -2 41 -7
43 -25 3 -19 -1 -23 -21 -23 -13 0 -32 9 -42 20 -10 11 -27 20 -38 20 -24 0
-107 40 -107 52 0 14 47 9 60 -7z m300 -15 c0 -6 -11 -10 -25 -10 -14 0 -25 4
-25 8 0 4 11 9 25 10 14 1 25 -3 25 -8z m-770 -10 c0 -5 -11 -10 -25 -10 -14
0 -25 5 -25 10 0 6 11 10 25 10 14 0 25 -4 25 -10z m1515 -24 c17 -13 27 -27
23 -31 -8 -8 -73 22 -89 41 -20 25 33 17 66 -10z m-2270 -7 c-4 -5 -13 -9 -22
-9 -13 0 -13 3 -3 15 13 15 35 11 25 -6z m1145 -34 c0 -6 -16 -19 -36 -29 -33
-15 -38 -15 -60 -1 -32 21 -33 49 -1 39 12 -3 28 -11 35 -16 6 -6 12 -7 12 -3
0 4 -7 13 -17 20 -9 7 -13 17 -9 23 8 14 76 -16 76 -33z m447 28 c7 -19 -18
-26 -43 -12 -13 7 -24 16 -24 20 0 11 63 4 67 -8z m-1507 -2 c0 -12 -20 -25
-27 -18 -7 7 6 27 18 27 5 0 9 -4 9 -9z m170 5 c0 -2 -7 -7 -16 -10 -8 -3 -12
-2 -9 4 6 10 25 14 25 6z m307 -16 c3 -11 12 -20 19 -20 21 0 17 -28 -7 -40
-27 -15 -53 -5 -46 19 3 11 -4 23 -17 31 -21 14 -21 14 4 21 39 11 42 10 47
-11z m643 0 c14 -10 21 -22 17 -26 -11 -11 -57 14 -57 31 0 20 10 19 40 -5z
m-320 -28 c0 -10 -11 -11 -42 -7 -24 4 -46 9 -50 11 -17 10 -7 23 20 26 33 4
72 -12 72 -30z m2540 3 c25 -13 56 -32 70 -44 23 -19 20 -19 -45 5 -38 15 -81
30 -95 33 -14 4 -26 15 -28 25 -3 14 1 16 25 10 15 -4 48 -17 73 -29z m-2100
-14 c19 -15 21 -21 9 -21 -19 0 -69 37 -69 51 0 11 22 0 60 -30z m-1100 -11
c0 -5 -4 -10 -10 -10 -5 0 -10 5 -10 10 0 6 5 10 10 10 6 0 10 -4 10 -10z
m729 -6 c44 -9 39 -24 -9 -24 -29 0 -40 4 -40 15 0 17 4 18 49 9z m2311 -4
c13 -8 13 -10 -2 -10 -9 0 -20 5 -23 10 -8 13 5 13 25 0z m-2850 -9 c0 -6 -4
-13 -10 -16 -5 -3 -10 -14 -10 -24 0 -24 -17 -37 -57 -44 -26 -5 -33 -3 -33 9
0 8 7 17 15 20 8 4 15 17 15 29 0 24 14 32 58 34 12 0 22 -3 22 -8z m407 -8
c5 -12 7 -12 14 -1 6 9 9 7 9 -8 0 -14 8 -24 22 -28 17 -4 20 -8 11 -17 -17
-17 -59 -14 -78 5 -9 9 -24 16 -32 16 -17 0 -53 28 -53 40 0 4 23 8 51 8 35 0
52 -5 56 -15z m-667 -11 c0 -10 -9 -28 -20 -40 -17 -18 -25 -20 -40 -12 -25
13 -25 18 2 47 26 28 58 31 58 5z m1092 -29 c8 -10 6 -13 -9 -13 -25 0 -63 28
-63 46 0 13 5 12 31 -3 17 -10 35 -24 41 -30z m-702 23 c0 -18 -23 -27 -41
-15 -12 8 -12 10 1 19 22 14 40 12 40 -4z m620 -33 c0 -8 11 -24 25 -37 14
-13 25 -28 25 -34 0 -6 8 -15 17 -21 10 -5 15 -13 10 -17 -4 -4 -17 -2 -29 5
-66 36 -89 49 -102 60 -11 9 -24 6 -59 -13 -24 -14 -47 -22 -51 -19 -3 4 -13
-2 -20 -13 -8 -10 -18 -16 -22 -12 -4 4 -13 3 -20 -3 -17 -14 -54 -2 -54 17 0
8 6 14 13 13 45 -6 75 2 80 22 4 16 10 19 29 14 19 -6 21 -5 11 6 -29 30 1 36
61 13 17 -7 18 -4 13 23 -3 17 -4 33 0 36 9 10 73 -26 73 -40z m417 41 c-3 -3
-12 -4 -19 -1 -8 3 -5 6 6 6 11 1 17 -2 13 -5z m-1867 -22 c0 -13 -32 -39 -57
-46 -32 -10 -29 8 5 33 28 21 52 27 52 13z m2188 -31 c27 -32 26 -67 -3 -63
-32 5 -68 36 -82 70 l-13 31 38 -6 c23 -3 46 -15 60 -32z m144 16 c13 -20 9
-47 -7 -53 -21 -9 -85 37 -85 60 0 16 5 18 42 12 23 -4 46 -12 50 -19z m-664
-17 c3 -21 2 -22 -12 -11 -19 16 -21 44 -3 39 6 -3 14 -15 15 -28z m837 5 c29
-28 32 -53 9 -62 -15 -5 -94 61 -94 79 0 19 62 7 85 -17z m1100 13 c25 -11 34
-28 15 -28 -16 0 -60 23 -60 32 0 11 14 10 45 -4z m-2575 -27 c0 -15 -74 -81
-91 -81 -4 0 -17 9 -30 20 -22 19 -23 21 -6 30 9 6 17 19 17 30 0 23 9 26 65
22 34 -3 45 -8 45 -21z m-450 -20 c0 -12 -13 -25 -35 -35 -36 -17 -43 -34 -25
-52 26 -26 -12 -54 -72 -54 -21 0 -28 5 -28 20 0 11 5 20 10 20 6 0 10 9 10
19 0 10 6 21 14 24 8 3 20 18 28 34 10 22 22 29 53 34 22 3 41 7 43 8 1 0 2
-7 2 -18z m2156 -18 c29 -19 48 -39 55 -61 14 -43 0 -61 -31 -39 -46 32 -101
127 -74 127 4 0 27 -12 50 -27z m-2397 -5 c8 3 12 -1 9 -9 -3 -8 -16 -13 -28
-11 -30 3 -32 5 -24 27 6 15 9 16 18 3 6 -8 17 -13 25 -10z m2674 11 c33 -17
77 -61 77 -77 0 -7 18 -35 40 -61 56 -67 55 -94 -2 -46 -30 26 -50 27 -31 3
16 -20 46 -119 38 -126 -4 -4 -18 7 -31 23 -13 17 -24 24 -24 18 0 -24 -25
-13 -55 24 -39 48 -85 121 -85 133 0 15 34 12 56 -5 20 -15 69 -21 62 -7 -2 4
-12 26 -22 50 -10 23 -22 42 -27 42 -4 0 -13 9 -19 20 -12 23 -8 25 23 9z
m-1345 -16 c16 -31 23 -73 12 -73 -5 0 -10 6 -10 13 0 8 -9 22 -20 32 -11 10
-20 24 -20 32 0 19 28 16 38 -4z m-844 1 c17 -7 22 -44 6 -44 -6 0 -8 -10 -5
-22 3 -13 -1 -32 -9 -43 -12 -16 -19 -18 -41 -10 -15 6 -35 20 -43 33 -15 23
-15 23 27 16 28 -4 41 -3 41 5 0 6 -9 11 -20 11 -16 0 -40 26 -40 44 0 2 15 7
33 9 17 2 33 5 34 5 1 1 8 -1 17 -4z m2514 -27 c2 -10 -3 -17 -12 -17 -10 0
-16 9 -16 21 0 24 23 21 28 -4z m-2200 -49 c-7 -7 -19 -14 -26 -16 -12 -2 -72
24 -72 32 0 2 17 4 37 4 21 0 39 5 41 11 2 7 9 5 19 -4 12 -13 12 -17 1 -27z
m248 17 c18 -15 18 -15 -5 -13 -14 2 -26 9 -29 16 -5 17 10 15 34 -3z m-1106
-9 c0 -3 -4 -8 -10 -11 -5 -3 -10 -1 -10 4 0 6 5 11 10 11 6 0 10 -2 10 -4z
m1450 -43 c0 -13 -3 -13 -15 -3 -8 7 -15 19 -15 27 0 13 3 13 15 3 8 -7 15
-19 15 -27z m560 -9 c8 -6 32 -14 54 -17 47 -7 52 -12 36 -32 -22 -27 -65 -18
-104 21 -20 20 -41 45 -47 56 -10 19 -10 19 18 2 15 -10 35 -23 43 -30z m-685
6 c23 -26 8 -26 -25 0 -18 14 -21 20 -9 20 9 0 24 -9 34 -20z m101 -27 c-8 -8
-46 22 -46 36 0 10 8 7 25 -9 14 -13 23 -25 21 -27z m-406 12 c0 -33 -72 -42
-92 -11 -14 20 -8 25 35 28 50 4 57 1 57 -17z m150 11 c15 -1 26 -8 28 -18 5
-23 -15 -23 -55 2 -35 21 -45 37 -15 25 9 -4 28 -8 42 -9z m-1760 -3 c-1 -5
-14 -24 -30 -43 -35 -40 -41 -24 -8 20 21 28 38 39 38 23z m2823 -86 c20 -19
37 -44 37 -54 0 -12 27 -44 65 -78 36 -32 65 -65 65 -73 0 -8 6 -12 14 -9 17
7 106 -58 106 -77 0 -30 -32 -25 -72 12 -57 51 -65 59 -130 134 -53 61 -61 66
-118 78 -55 12 -60 15 -46 28 13 14 12 20 -10 59 -36 66 -32 81 14 45 20 -17
54 -46 75 -65z m-1750 64 c14 -13 -4 -41 -27 -41 -35 0 -76 23 -76 44 0 16 5
17 48 11 26 -4 51 -10 55 -14z m-448 -28 c-21 -15 -55 -18 -55 -4 0 12 52 30
64 23 5 -3 1 -11 -9 -19z m1724 1 c116 -43 120 -80 5 -48 -32 9 -69 18 -81 21
-16 4 -23 13 -23 29 0 31 12 30 99 -2z m-343 -25 c8 -16 10 -29 5 -29 -18 0
-64 47 -57 58 10 17 35 3 52 -29z m-1850 16 c-19 -15 -46 -20 -46 -10 0 6 40
24 55 24 6 0 1 -6 -9 -14z m1234 -30 c-16 -19 -54 -19 -70 0 -14 16 -7 21 40
28 33 4 47 -8 30 -28z m560 -15 c8 -4 17 -19 20 -34 3 -15 16 -32 29 -39 14
-7 26 -18 29 -26 8 -23 -40 -2 -69 30 -14 16 -30 29 -36 29 -15 0 -64 60 -58
70 3 5 20 2 38 -7 17 -9 39 -19 47 -23z m-1585 20 c-3 -5 -11 -10 -16 -10 -6
0 -7 5 -4 10 3 6 11 10 16 10 6 0 7 -4 4 -10z m2604 -27 c31 -36 39 -67 22
-78 -15 -9 -78 52 -83 80 -10 48 19 48 61 -2z m-2097 2 c-5 -31 -17 -38 -51
-30 -21 4 -31 13 -31 25 0 21 8 25 53 25 26 0 31 -4 29 -20z m926 -2 c-2 -22
-8 -28 -27 -28 -31 0 -52 31 -31 45 8 5 25 10 38 10 20 0 23 -4 20 -27z m2182
17 c0 -5 -4 -10 -10 -10 -5 0 -10 5 -10 10 0 6 5 10 10 10 6 0 10 -4 10 -10z
m-1291 -25 c24 -12 19 -13 -54 -9 -83 6 -98 10 -77 23 18 11 101 2 131 -14z
m-2229 -33 c0 -5 -9 -17 -20 -27 -20 -18 -20 -17 -20 8 0 20 5 27 20 27 11 0
20 -4 20 -8z m773 -33 c12 -44 -54 -65 -98 -31 -35 28 -17 48 44 50 41 1 50
-2 54 -19z m2007 -34 c23 -38 23 -70 0 -70 -23 0 -82 96 -69 112 15 18 42 2
69 -42z m76 13 c9 -18 26 -41 38 -50 17 -14 19 -21 10 -35 -6 -10 -18 -18 -26
-18 -9 0 -28 -13 -44 -28 -16 -16 -42 -36 -59 -44 -16 -8 -40 -25 -52 -36 -22
-20 -23 -20 -43 -2 -26 24 -27 59 -1 50 21 -6 130 46 157 76 16 18 17 21 1 55
-31 63 -12 94 19 32z m-1398 9 c18 -12 15 -34 -9 -58 -20 -20 -20 -21 -2 -34
10 -8 20 -14 23 -15 11 0 27 16 33 33 5 13 11 15 24 8 10 -5 26 -12 36 -15 21
-7 23 -46 1 -46 -8 0 -24 5 -35 10 -16 9 -19 7 -19 -9 0 -27 -15 -34 -42 -20
-28 15 -47 39 -48 60 0 8 -11 26 -25 39 -38 35 -33 56 13 55 20 0 43 -4 50 -8z
m192 2 c0 -36 92 -109 138 -109 10 0 36 -9 57 -21 48 -24 103 -46 166 -63 25
-7 57 -21 70 -30 63 -41 140 -58 266 -57 68 0 125 -4 128 -9 12 -20 -36 -27
-156 -25 -102 2 -135 7 -173 24 -27 11 -52 19 -56 16 -23 -15 -190 46 -243 88
-23 18 -61 42 -85 52 -39 17 -142 116 -142 136 0 5 7 9 15 9 8 0 15 -5 15 -11z
m-2330 -24 c-7 -9 -15 -13 -17 -11 -7 7 7 26 19 26 6 0 6 -6 -2 -15z m870 0
c0 -8 -4 -15 -8 -15 -4 0 -15 -13 -25 -29 -9 -15 -40 -54 -70 -86 -44 -47 -57
-56 -75 -51 -23 8 -32 56 -11 56 17 0 109 44 109 52 0 4 -9 13 -20 20 -11 7
-20 18 -20 24 0 14 37 32 75 37 17 2 33 5 38 6 4 0 7 -6 7 -14z m190 -34 c0
-5 -7 -11 -15 -15 -9 -3 -15 0 -15 9 0 8 7 15 15 15 8 0 15 -4 15 -9z m890
-10 c0 -5 3 -16 6 -24 6 -16 -28 -57 -46 -57 -14 0 -12 64 2 78 14 14 38 16
38 3z m-957 -26 c4 -6 11 -4 17 5 5 8 10 11 10 7 0 -19 -42 -67 -59 -67 -34 0
-58 52 -28 63 18 8 51 3 60 -8z m2771 -41 c3 -8 10 -13 15 -10 14 9 48 -39 71
-101 25 -68 13 -94 -19 -42 -15 24 -21 29 -21 16 0 -11 9 -30 20 -44 20 -26
28 -83 11 -83 -5 0 -21 14 -35 32 -23 30 -25 31 -31 13 -15 -44 -42 -88 -82
-135 -24 -26 -43 -52 -43 -57 0 -6 14 -22 30 -36 17 -15 30 -32 30 -37 0 -6 9
-10 20 -10 11 0 25 -9 32 -20 7 -11 23 -20 36 -20 18 0 28 11 47 53 26 56 32
102 19 157 -7 32 -6 34 9 22 9 -8 19 -23 22 -33 5 -14 12 -18 26 -14 12 4 19
2 19 -7 0 -24 -21 -38 -41 -28 -15 9 -18 6 -17 -18 2 -60 -24 -130 -64 -178
-17 -20 -17 -21 16 -57 20 -22 40 -35 48 -32 8 3 27 25 42 48 19 29 26 34 21
17 -15 -49 -23 -65 -44 -84 -26 -23 -26 -44 -2 -75 12 -16 24 -22 35 -18 19 7
20 3 6 -24 -17 -31 -38 -22 -61 26 -12 25 -25 45 -29 45 -5 0 -19 20 -31 45
-21 42 -24 44 -40 29 -15 -13 -35 -15 -126 -10 -126 6 -163 14 -170 32 -3 8
-8 12 -12 10 -8 -5 -96 8 -156 23 -154 38 -192 43 -169 22 14 -13 151 -61 193
-67 52 -7 101 -24 101 -34 0 -19 -21 -19 -111 0 -111 24 -118 24 -98 5 29 -29
162 -70 371 -115 75 -16 147 -34 159 -40 12 -7 36 -9 55 -5 45 8 46 -14 2 -49
l-33 -26 28 0 c17 0 27 -5 27 -14 0 -31 -13 -46 -40 -46 -23 0 -27 -4 -23 -20
3 -11 14 -20 24 -20 22 0 25 -15 5 -23 -8 -3 -25 2 -38 12 -41 32 -86 51 -159
66 -110 23 -225 89 -319 183 -19 19 -60 53 -90 76 -30 22 -95 76 -145 121 -49
44 -102 88 -117 98 -22 14 -28 25 -28 52 l0 35 63 1 c97 2 211 -2 222 -9 5 -3
77 -7 158 -8 86 -1 153 -6 159 -12 19 -19 -3 -32 -52 -32 -27 0 -61 -5 -75
-12 -19 -9 -28 -9 -33 -1 -5 7 -52 12 -127 14 -66 1 -122 6 -125 10 -3 4 -21
4 -40 0 l-35 -8 35 -6 c19 -3 55 -9 80 -12 49 -6 176 -33 200 -43 16 -6 25 -7
150 -16 41 -3 82 -6 90 -7 30 -4 75 2 89 10 12 8 12 14 2 38 -11 27 -16 29
-59 27 -26 0 -55 -5 -65 -9 -16 -7 -18 -4 -15 21 2 23 10 31 37 40 l33 11 -28
21 c-47 35 -74 64 -110 120 -18 28 -41 52 -49 52 -10 0 -15 10 -15 33 l0 32
56 -60 c31 -33 63 -70 71 -82 9 -13 23 -23 32 -23 9 0 25 -7 35 -15 33 -25 63
-18 91 20 36 46 65 105 65 129 0 25 -22 86 -31 86 -4 0 -12 14 -19 30 -11 26
-10 33 5 50 22 24 51 26 59 4z m-2590 -80 c3 -8 15 -14 26 -14 12 0 18 -4 15
-10 -3 -5 -19 -10 -35 -10 -27 0 -40 15 -40 46 0 17 26 8 34 -12z m1174 4 c10
-10 14 -10 20 0 6 8 18 -3 38 -35 32 -51 96 -103 127 -103 22 0 143 -56 152
-70 4 -6 10 -8 13 -6 4 2 18 -3 31 -13 17 -13 22 -25 19 -50 l-3 -33 -80 58
c-55 40 -100 63 -144 76 -35 10 -74 27 -86 38 -12 11 -35 20 -52 20 -23 0 -38
9 -57 31 -30 35 -32 47 -11 55 10 4 13 13 10 25 -7 22 5 25 23 7z m-1478 -29
c0 -12 -7 -19 -18 -19 -10 0 -29 -11 -42 -25 -23 -25 -73 -34 -85 -16 -7 13
23 41 44 41 10 0 33 11 52 23 38 26 49 25 49 -4z m3222 -44 c50 -73 51 -75 34
-75 -14 0 -58 69 -72 113 -8 27 -5 25 38 -38z m-804 -10 c8 -8 0 -12 -40 -19
-34 -6 -38 -5 -38 15 0 19 4 21 36 16 20 -3 39 -9 42 -12z m-1035 -12 c13 -8
8 -71 -7 -76 -19 -7 -66 44 -66 72 0 20 3 22 33 16 17 -4 35 -9 40 -12z m1125
5 c-7 -20 -68 -23 -68 -4 0 12 10 16 36 16 24 0 34 -4 32 -12z m-1434 -25 c8
-29 -14 -60 -33 -49 -15 10 -14 63 2 69 22 9 25 7 31 -20z m1954 -59 c4 -61
-17 -48 -25 16 -5 34 -3 42 8 38 9 -3 15 -23 17 -54z m-1440 -39 c2 -8 -4 -18
-13 -21 -20 -8 -75 42 -75 68 0 18 3 17 43 -6 23 -14 43 -32 45 -41z m-204 -5
c8 0 21 -13 29 -30 14 -27 13 -33 -4 -67 -11 -21 -23 -36 -27 -33 -4 3 -8 -14
-10 -37 -4 -61 -32 -74 -72 -35 -28 28 -48 77 -37 88 3 3 14 1 25 -5 28 -15
69 -14 79 3 4 7 14 15 22 18 9 2 1 12 -23 26 -37 22 -61 64 -51 90 4 12 9 12
30 -2 13 -9 31 -16 39 -16z m-146 -53 c3 -33 1 -37 -21 -37 -30 0 -73 32 -63
48 4 6 13 9 20 6 7 -3 19 2 26 11 20 24 35 13 38 -28z m370 -72 c11 -10 -22
-45 -42 -45 -12 0 -33 -11 -45 -24 -22 -24 -22 -24 -3 -30 11 -4 35 -25 52
-46 81 -99 148 -11 117 155 l-7 40 23 -47 c16 -35 26 -46 39 -42 22 7 31 -11
18 -37 -7 -11 -12 -52 -13 -90 -1 -40 -6 -68 -12 -66 -5 2 -18 -7 -28 -20 -10
-13 -27 -28 -38 -33 -17 -10 -18 -8 -9 15 16 42 13 57 -8 46 -10 -6 -27 -8
-38 -6 -10 2 -31 6 -45 9 -14 3 -34 13 -45 23 -29 27 -64 97 -64 130 0 16 -4
33 -9 39 -11 10 -3 64 10 64 4 0 15 -9 23 -21 21 -30 38 -15 30 28 l-7 35 49
-37 c27 -21 50 -39 52 -40z m-626 -28 c-5 -7 -15 -36 -21 -66 -11 -52 -10 -55
29 -136 22 -46 44 -86 49 -89 5 -4 15 -23 22 -44 13 -42 38 -74 50 -66 10 5
42 -11 82 -43 16 -13 37 -23 47 -23 10 0 21 -4 24 -9 11 -17 76 -20 116 -4 22
9 40 19 40 23 0 13 -45 47 -70 53 -26 6 -60 29 -89 59 -56 58 -79 87 -91 118
-8 19 -26 55 -41 80 -28 47 -56 136 -46 146 13 13 30 -12 73 -104 58 -128 56
-125 90 -141 16 -8 59 -40 95 -73 60 -53 71 -58 112 -58 52 0 97 14 97 30 0 6
-4 9 -9 5 -6 -3 -39 14 -75 39 -36 24 -73 47 -84 50 -11 4 -25 20 -32 36 -7
17 -16 30 -20 30 -10 0 -30 56 -30 81 0 11 4 19 8 19 11 0 123 -100 178 -159
38 -40 44 -43 82 -39 47 4 55 -11 22 -39 -11 -10 -20 -23 -20 -29 0 -19 -44
-96 -58 -101 -7 -3 -19 1 -28 8 -14 11 -19 9 -34 -11 -11 -15 -17 -34 -14 -47
9 -34 -38 -50 -158 -54 -65 -3 -63 0 -88 -119 -7 -30 -25 -82 -41 -116 -16
-34 -29 -70 -29 -81 0 -10 -5 -24 -12 -31 -7 -7 -11 -53 -10 -134 1 -187 -26
-273 -106 -337 -39 -30 -112 -52 -112 -33 0 10 32 25 53 27 5 0 14 8 21 18 7
9 17 17 22 17 17 0 53 66 68 125 9 34 18 110 21 170 9 175 18 227 64 355 38
107 40 145 6 172 -14 11 -23 23 -20 28 3 5 1 10 -4 12 -15 5 -81 120 -81 141
0 11 -16 41 -35 67 -19 26 -35 50 -35 53 0 3 -16 33 -36 67 -25 43 -33 67 -28
83 8 27 88 109 92 96 2 -5 -1 -15 -6 -22z m88 13 c0 -11 -4 -20 -10 -20 -5 0
-10 9 -10 20 0 11 5 20 10 20 6 0 10 -9 10 -20z m376 -38 c-9 -8 -26 10 -26
26 1 15 2 15 15 -2 8 -11 13 -21 11 -24z m1642 14 c2 -9 1 -25 -3 -34 -5 -14
-7 -14 -15 -2 -14 22 -12 62 3 58 6 -3 14 -12 15 -22z m-1213 -67 c11 -17 -1
-21 -15 -4 -8 9 -8 15 -2 15 6 0 14 -5 17 -11z m1250 -127 c-8 -8 -25 18 -25
40 0 9 6 29 12 45 12 27 13 26 16 -26 2 -29 0 -56 -3 -59z m55 -4 c0 -16 -4
-28 -10 -28 -5 0 -10 19 -10 43 0 31 3 38 10 27 5 -8 10 -27 10 -42z m-2650
26 c0 -8 -4 -12 -10 -9 -5 3 -10 10 -10 16 0 5 5 9 10 9 6 0 10 -7 10 -16z
m-20 -13 c0 -5 -7 -27 -15 -51 -18 -52 -53 -90 -82 -90 -30 0 -63 46 -62 84 2
30 2 30 6 4 2 -16 9 -28 14 -28 5 0 9 -7 9 -15 0 -20 31 -19 68 2 24 14 32 27
37 60 3 24 10 43 16 43 5 0 9 -4 9 -9z m110 -33 c0 -19 -31 -170 -39 -191 -6
-16 -11 -41 -11 -57 0 -15 -14 -56 -30 -89 -17 -34 -28 -66 -25 -71 3 -6 2
-10 -3 -10 -5 0 -15 -20 -22 -43 -16 -59 -58 -107 -92 -107 -38 0 -98 30 -98
49 0 18 54 46 74 38 18 -7 86 50 86 71 0 10 15 49 34 88 42 86 86 209 86 240
0 13 5 26 10 29 6 3 10 17 10 31 0 13 5 24 10 24 6 0 10 -1 10 -2z m2037 -18
c2 0 3 -7 3 -15 0 -18 -41 -20 -58 -3 -24 24 -14 37 20 27 18 -5 34 -9 35 -9z
m84 -30 c10 -6 19 -14 19 -19 0 -12 -64 -10 -72 3 -16 24 17 35 53 16z m-1101
-45 c-4 -22 -9 -35 -10 -30 -1 6 -5 1 -10 -10 -8 -20 -9 -20 -9 1 -1 20 28 89
34 82 2 -2 -1 -21 -5 -43z m1325 35 c3 -5 1 -18 -4 -29 -8 -15 -26 -21 -80
-26 -75 -7 -114 4 -109 33 3 14 19 18 88 23 47 3 88 6 92 7 4 1 10 -2 13 -8z
m-2765 -55 c0 -19 -4 -35 -10 -35 -11 0 -14 53 -3 63 11 12 13 8 13 -28z
m2210 -22 c0 -16 -17 -16 -55 1 l-30 14 43 -1 c27 -1 42 -6 42 -14z m-820 -58
c-7 -12 -23 -28 -37 -34 -28 -13 -26 -8 15 48 28 37 44 26 22 -14z m-1391 -32
c1 -39 -8 -65 -20 -57 -11 6 -12 48 -2 95 5 28 7 30 14 14 4 -11 8 -34 8 -52z
m2326 -5 c-9 -21 -80 -57 -126 -64 -44 -6 -43 -5 31 34 80 42 102 49 95 30z
m-1475 -24 c0 -47 -79 -163 -115 -168 -7 -1 -19 -6 -26 -12 -8 -5 -27 -11 -44
-13 -16 -2 -38 -7 -47 -12 -24 -13 -47 -11 -95 7 -53 20 -56 46 -10 74 27 17
45 20 120 17 87 -4 90 -3 118 25 16 16 29 34 29 40 0 12 52 68 62 68 5 0 8
-12 8 -26z m1616 -51 c-2 -2 -30 -11 -63 -20 -32 -8 -91 -33 -130 -55 -49 -26
-82 -38 -100 -36 -25 4 -26 5 -8 12 34 13 98 45 135 69 36 22 136 47 158 39 7
-2 11 -6 8 -9z m377 -86 c1 -14 -2 -27 -8 -29 -5 -2 -11 15 -13 37 -2 29 0 37
8 29 6 -6 12 -23 13 -37z m-173 2 c0 -5 -1 -12 -2 -15 -2 -4 -59 -7 -128 -8
-118 -1 -132 -3 -256 -44 -79 -25 -149 -42 -175 -41 l-44 1 35 9 c19 6 91 28
160 50 69 22 164 45 211 52 92 13 199 11 199 -4z m45 -59 c21 -24 41 -26 49
-5 3 8 10 15 16 15 16 0 2 -41 -22 -65 l-19 -20 -15 20 c-44 57 -51 101 -9 55z
m-4171 -87 c-7 -63 -33 -128 -34 -86 0 13 5 44 11 70 17 71 18 73 24 73 3 0 2
-26 -1 -57z m4158 21 c20 -25 30 -26 71 -9 12 5 17 2 17 -10 0 -10 8 -24 18
-31 15 -12 15 -13 0 -14 -9 0 -18 5 -20 11 -2 7 -12 7 -31 -2 -25 -11 -30 -10
-55 14 -27 26 -33 27 -128 27 -54 0 -157 -9 -229 -21 -114 -17 -285 -38 -322
-39 -7 0 -13 4 -13 9 0 10 14 12 165 32 50 6 128 17 175 25 47 8 114 14 150
15 36 0 85 4 110 8 69 13 71 13 92 -15z m-14 -103 c3 -21 8 -23 38 -18 19 3
34 2 34 -3 0 -14 -28 -38 -53 -45 -12 -4 -29 -16 -37 -26 -23 -29 -145 -49
-260 -43 -162 9 -384 34 -395 45 -11 12 21 10 225 -11 175 -19 395 4 420 43 9
16 9 22 -2 33 -11 10 -36 10 -143 -1 -141 -16 -308 -19 -428 -9 -133 12 -83
24 86 21 215 -3 436 11 462 28 28 20 49 14 53 -14z m-2755 -58 c-7 -18 -20
-17 -27 3 -10 25 -7 49 6 62 10 10 14 7 20 -19 3 -18 4 -38 1 -46z m2941 28
c3 -5 0 -14 -8 -20 -10 -9 -15 -8 -19 3 -9 22 15 37 27 17z m-76 -84 c7 -15
17 -27 23 -27 15 0 10 -40 -7 -47 -8 -3 -13 -12 -10 -19 3 -8 2 -14 -2 -14
-15 0 -65 107 -59 124 10 25 39 16 55 -17z m-1539 -135 c30 -91 37 -150 22
-201 -4 -14 -11 -26 -17 -28 -8 -3 -10 18 -7 64 4 55 0 83 -21 147 -26 78 -34
139 -17 121 5 -6 23 -52 40 -103z m854 76 c76 -18 124 -21 279 -22 103 -1 184
-4 180 -8 -14 -14 -114 -28 -197 -28 -130 0 -365 45 -365 71 0 12 -4 12 103
-13z m-769 -68 c5 -32 5 -34 -9 -16 -8 11 -15 31 -15 45 0 34 16 15 24 -29z
m1420 18 c19 -38 20 -48 3 -48 -8 0 -19 11 -25 25 -26 56 -5 77 22 23z m-174
-83 c0 -7 -6 -18 -14 -24 -12 -10 -17 -8 -26 9 -15 28 5 57 26 39 8 -6 14 -17
14 -24z m-1200 -52 c13 -62 7 -115 -16 -134 -15 -13 -15 -3 2 62 4 15 -8 84
-23 134 -5 17 -4 18 10 7 9 -8 21 -38 27 -69z m1483 -22 c4 -18 6 -36 2 -39
-9 -10 -24 12 -31 47 -9 45 17 38 29 -8z m-1396 -36 c12 -31 18 -64 15 -87 -3
-24 0 -38 7 -38 6 0 11 7 11 15 0 8 5 15 10 15 6 0 10 -11 10 -25 0 -42 -58
-86 -113 -85 -19 1 -17 4 16 31 34 29 49 59 28 59 -5 0 -4 18 1 41 10 38 7 59
-19 129 -15 39 16 -11 34 -55z m1127 9 c9 -3 16 -17 16 -31 0 -13 5 -33 11
-44 13 -24 -3 -49 -32 -49 -15 0 -17 -5 -13 -28 11 -52 -56 -71 -70 -19 -14
52 -7 94 19 111 14 9 25 22 25 29 0 7 5 18 12 25 14 14 12 14 32 6z m196 -39
c0 -13 5 -27 10 -30 14 -8 13 -42 -2 -51 -17 -11 -38 25 -38 66 0 20 3 40 6
43 12 11 24 -3 24 -28z m-66 -96 c5 -33 3 -56 -5 -65 -17 -21 -25 -17 -36 19
-8 26 -7 43 4 70 9 20 19 35 23 32 4 -2 10 -28 14 -56z m-1590 -1 c-21 -10
-42 -14 -46 -10 -12 12 11 29 42 34 43 7 45 -4 4 -24z m-127 -4 c2 -7 -10 -14
-27 -16 -31 -5 -46 4 -35 21 7 13 58 8 62 -5z m243 -25 c-11 -20 -27 -24 -48
-10 -11 6 -11 10 0 18 34 27 64 22 48 -8z m1233 19 c2 -7 0 -22 -6 -33 -7 -13
-6 -20 2 -23 17 -6 13 -39 -5 -46 -9 -3 -27 -6 -40 -6 -21 0 -24 4 -24 40 0
27 7 47 20 60 23 23 46 26 53 8z m357 -90 c14 -45 6 -78 -20 -78 -27 0 -36 42
-20 91 15 44 22 42 40 -13z m-157 -95 c4 -38 2 -52 -13 -67 -26 -27 -50 -14
-50 27 0 32 31 87 49 87 5 0 11 -21 14 -47z m-329 1 c18 -7 22 -49 5 -60 -6
-3 -9 -15 -6 -25 7 -25 -18 -50 -41 -42 -33 12 -42 26 -42 64 0 51 39 80 84
63z m399 -84 c7 -34 6 -46 -5 -54 -16 -12 -29 -57 -29 -93 1 -27 -34 -50 -46
-31 -9 16 -4 70 8 83 5 5 9 31 9 58 0 93 47 121 63 37z m-133 -44 c0 -2 -3
-11 -6 -20 -9 -23 -24 -20 -24 4 0 11 7 20 15 20 8 0 15 -2 15 -4z m-85 -78
c-4 -13 -9 -36 -12 -52 -5 -26 -4 -27 15 -17 36 19 43 14 39 -30 -4 -44 -18
-59 -56 -59 -21 0 -23 4 -18 29 5 26 3 29 -23 35 -32 6 -37 23 -19 59 19 37
41 57 62 57 15 0 18 -4 12 -22z m63 1 c-2 -6 -8 -10 -13 -10 -5 0 -11 4 -13
10 -2 6 4 11 13 11 9 0 15 -5 13 -11z m-347 -29 c25 -14 25 -47 -1 -55 -12 -4
-20 -15 -20 -29 0 -33 -25 -53 -45 -36 -24 20 -18 65 12 99 31 35 28 34 54 21z
m109 -134 c0 -8 -5 -18 -11 -21 -5 -4 -14 -18 -19 -31 -9 -23 -40 -34 -40 -14
0 6 5 10 11 10 8 0 8 5 -1 15 -7 8 -17 12 -22 9 -6 -4 -5 2 1 14 17 32 81 46
81 18z m311 -29 c-6 -6 -11 -19 -11 -29 0 -9 -9 -22 -20 -28 -13 -7 -20 -7
-20 -1 0 16 23 65 34 73 15 10 29 -3 17 -15z m-179 -53 c11 -10 -36 -73 -54
-74 -23 0 -22 1 3 44 19 33 38 44 51 30z m39 -27 c-13 -13 -26 -3 -16 12 3 6
11 8 17 5 6 -4 6 -10 -1 -17z m50 -20 c-13 -13 -26 -3 -16 12 3 6 11 8 17 5 6
-4 6 -10 -1 -17z m-35 -44 c-10 -10 -19 5 -10 18 6 11 8 11 12 0 2 -7 1 -15
-2 -18z m-232 -68 c-4 -8 -12 -15 -20 -15 -8 0 -23 -5 -34 -12 -29 -18 -36 -1
-9 21 29 25 71 28 63 6z m-139 -15 c-3 -5 -18 -10 -33 -9 -24 0 -25 1 -7 9 28
12 47 12 40 0z m225 -34 c0 -18 -17 -29 -30 -21 -8 5 -7 11 1 21 15 18 29 18
29 0z m-2774 -345 c22 -11 54 -23 70 -26 16 -4 52 -17 79 -29 67 -30 226 -71
309 -81 39 -4 244 -15 311 -16 61 -1 215 17 258 30 18 5 66 18 108 29 l75 19
80 -29 c152 -57 221 -68 394 -64 156 4 289 21 332 42 36 18 35 19 30 -21 -3
-21 -8 -32 -15 -28 -7 4 -8 -17 -4 -68 4 -48 3 -69 -3 -59 -8 12 -10 11 -10
-6 0 -31 -38 -141 -71 -208 -16 -33 -29 -65 -29 -71 0 -7 -7 -18 -15 -25 -8
-7 -20 -30 -27 -52 -6 -22 -18 -42 -25 -45 -7 -3 -13 -11 -13 -19 0 -7 -11
-24 -25 -38 -14 -14 -25 -29 -25 -34 0 -11 -50 -26 -58 -18 -3 3 -11 -3 -19
-14 -8 -11 -23 -20 -33 -20 -34 0 -58 -37 -56 -83 3 -35 6 -42 22 -40 10 2 29
4 41 5 15 2 20 8 17 21 -2 13 2 17 14 13 9 -3 30 -8 45 -12 21 -5 26 -11 22
-25 -4 -13 -1 -19 9 -19 10 0 16 -9 16 -26 0 -14 5 -35 11 -46 9 -16 7 -24 -8
-39 -17 -18 -21 -18 -73 -3 -30 9 -71 22 -90 30 -19 7 -62 20 -95 29 -33 9
-69 21 -80 26 -11 4 -38 13 -60 18 -22 6 -49 17 -60 25 -11 9 -31 16 -45 16
-21 0 -133 36 -202 65 -39 16 -7 55 56 71 15 4 59 1 96 -6 37 -7 73 -11 80 -8
12 4 -49 46 -215 148 -284 176 -601 324 -931 435 -116 39 -144 52 -153 72 -6
13 -11 30 -11 37 0 7 -11 25 -25 38 -16 16 -23 32 -19 42 4 11 1 16 -10 16
-12 0 -16 10 -16 35 0 19 1 35 3 35 2 0 21 -9 43 -19z m653 -668 c19 -15 20
-21 9 -35 -7 -10 -30 -24 -50 -33 -33 -13 -38 -13 -53 1 -15 15 -14 19 16 50
38 39 48 41 78 17z m-1259 -47 c0 -5 -7 -1 -15 10 -8 10 -14 24 -14 29 0 6 6
1 14 -9 8 -11 15 -24 15 -30z m1330 -56 c0 -5 -4 -10 -10 -10 -5 0 -10 5 -10
10 0 6 5 10 10 10 6 0 10 -4 10 -10z m960 -429 c20 -5 26 -14 28 -44 4 -47
-13 -55 -76 -33 -26 9 -58 19 -72 22 -48 10 -81 40 -63 57 8 9 150 7 183 -2z
m-15 -378 c-11 -7 -28 -13 -39 -13 -18 0 -17 3 8 19 33 22 60 16 31 -6z m135
-396 c0 -4 -9 -2 -19 5 -10 6 -17 18 -14 25 4 11 8 10 19 -4 7 -10 14 -21 14
-26z"/>
<path d="M4833 5661 l-22 -6 20 -25 c14 -18 17 -20 12 -6 -5 15 -3 18 10 13
11 -4 17 -1 17 8 0 19 -10 23 -37 16z"/>
<path d="M4850 5595 c0 -5 5 -17 10 -25 5 -8 10 -10 10 -5 0 6 -5 17 -10 25
-5 8 -10 11 -10 5z"/>
<path d="M4600 4780 c-13 -8 -12 -10 3 -10 9 0 17 5 17 10 0 12 -1 12 -20 0z"/>
<path d="M4743 4761 c-32 -16 -32 -17 -12 -29 11 -7 41 -13 67 -13 26 0 69 -2
95 -5 26 -3 64 -3 83 1 29 5 35 10 32 28 -2 18 -8 21 -33 19 -65 -8 -176 -4
-187 6 -9 7 -23 5 -45 -7z"/>
<path d="M2520 6815 c-8 -9 -8 -15 -2 -15 12 0 26 19 19 26 -2 2 -10 -2 -17
-11z"/>
<path d="M5770 6516 c0 -2 7 -7 16 -10 8 -3 12 -2 9 4 -6 10 -25 14 -25 6z"/>
<path d="M5810 6502 c0 -17 30 -42 50 -42 11 0 49 -11 86 -25 126 -48 97 -20
-38 36 -37 15 -68 25 -68 22 0 -3 -7 0 -15 7 -9 8 -15 8 -15 2z"/>
<path d="M5741 6176 c2 -2 39 -18 82 -36 44 -18 74 -36 68 -40 -7 -4 16 -19
53 -34 36 -15 70 -25 75 -21 6 3 11 2 11 -4 0 -11 90 -54 98 -46 3 3 0 5 -7 5
-7 0 -11 6 -8 13 4 13 -104 87 -138 93 -11 2 -67 19 -124 39 -103 34 -118 39
-110 31z"/>
<path d="M5860 6176 c0 -2 8 -10 18 -17 15 -13 16 -12 3 4 -13 16 -21 21 -21
13z"/>
<path d="M6030 6176 c0 -2 7 -7 16 -10 8 -3 12 -2 9 4 -6 10 -25 14 -25 6z"/>
<path d="M5576 5641 c5 -5 45 -37 89 -73 44 -35 114 -98 156 -141 43 -42 81
-77 85 -77 14 0 -135 148 -229 226 -48 41 -93 74 -99 74 -8 0 -8 -3 -2 -9z"/>
<path d="M5940 5121 c0 -5 7 -15 17 -22 15 -13 15 -12 4 9 -12 23 -21 28 -21
13z"/>
<path d="M5720 4719 c0 -8 7 -24 16 -35 14 -18 15 -18 8 6 -8 31 -24 50 -24
29z"/>
<path d="M5520 4553 c0 -13 29 -83 34 -83 6 0 -18 78 -27 86 -4 4 -7 3 -7 -3z"/>
<path d="M5250 4225 c4 -25 10 -49 15 -53 4 -4 5 11 2 33 -4 22 -7 46 -7 53 0
6 -4 12 -8 12 -5 0 -6 -20 -2 -45z"/>
<path d="M5191 3144 c0 -11 3 -14 6 -6 3 7 2 16 -1 19 -3 4 -6 -2 -5 -13z"/>
<path d="M4960 724 c0 -20 18 -54 30 -54 15 0 22 40 10 55 -16 20 -40 19 -40
-1z"/>
</g>
</svg>
